<?xml version="1.0" encoding="utf-8"?>
<!-- Generator: Adobe Illustrator 23.0.1, SVG Export Plug-In . SVG Version: 6.00 Build 0)  -->
<svg version="1.1" id="Layer_1" xmlns="http://www.w3.org/2000/svg" xmlns:xlink="http://www.w3.org/1999/xlink" x="0px" y="0px"
	 viewBox="0 0 1000 1000" style="enable-background:new 0 0 1000 1000;" xml:space="preserve">
<style type="text/css">
	.st0{fill:#F1C40F;}
</style>
<g>
	<g>
		<path class="st0" d="M640.7,500c0-77.46-63.01-140.7-140.7-140.7S359.3,422.31,359.3,500S422.31,640.7,500,640.7
			S640.7,577.46,640.7,500z M500,609.3c-60.3,0-109.3-49.01-109.3-109.3S439.7,390.7,500,390.7c60.3,0,109.3,49.01,109.3,109.3
			S560.3,609.3,500,609.3z"/>
		<path class="st0" d="M853.43,146.57C759.26,51.94,633.69,0,500,0S240.74,51.94,146.57,146.57S0,366.31,0,500
			s51.94,259.26,146.57,353.43S366.53,1000,500,1000s259.26-51.94,353.43-146.57S1000,633.47,1000,500S948.06,240.74,853.43,146.57z
			 M831.53,831.53C743,919.83,625.11,968.83,500,968.83s-243-48.78-331.53-137.31S31.17,625.34,31.17,500s48.78-243,137.31-331.53
			S374.89,31.17,500,31.17s243,49.01,331.53,137.31S968.83,374.89,968.83,500S919.83,743,831.53,831.53z"/>
		<path class="st0" d="M899.28,615.85c-2.94-4.07-7.68-6.55-12.65-6.55h-11.74c-8.58,0-15.58-7-15.58-15.58V406.28
			c0-8.58,7-15.58,15.58-15.58h11.74c4.97,0,9.71-2.26,12.65-6.55c2.94-4.29,3.61-9.26,2.26-14
			c-27.1-84.24-79.27-156.73-151.08-209.58C677.73,106.59,591.01,78.14,500,78.14s-177.73,28.46-250.68,82.43
			c-71.59,52.85-123.53,125.34-151.08,209.58c-1.58,4.74-0.68,9.94,2.26,14c2.94,4.07,7.68,6.55,12.65,6.55h11.74
			c8.58,0,15.58,7,15.58,15.58v187.44c0,8.58-7,15.58-15.58,15.58h-11.74c-4.97,0-9.71,2.26-12.65,6.55
			c-2.94,4.07-3.61,9.26-2.26,14c41.78,128.5,143.41,230.13,271.91,271.68c4.74,1.58,9.94,0.68,14-2.26
			c4.07-2.94,6.55-7.68,6.55-12.65v-11.74c0-8.58,7-15.58,15.58-15.58h187.44c8.58,0,15.58,7,15.58,15.58v11.74
			c0,4.97,2.26,9.71,6.55,12.65c2.71,2.03,5.87,2.94,9.26,2.94c1.58,0,3.39-0.23,4.97-0.68c128.5-41.55,230.13-143.18,271.68-271.68
			C903.12,625.11,902.21,619.92,899.28,615.85z M135.05,360.66c26.65-69.78,72.27-129.86,133.02-174.8
			c67.52-49.91,147.92-76.33,231.93-76.33s164.41,26.42,231.93,76.33c60.75,44.94,106.14,105.01,133.02,174.8
			c-9.71,2.26-18.29,7.45-24.84,14.45H660.12c-38.39-49.01-97.56-78.14-160.12-78.14s-121.73,29.13-160.12,78.14H159.89
			C153.34,367.89,144.76,362.69,135.05,360.66z M360.66,864.95C257.23,825.2,175.02,743,135.28,639.57
			c9.71-2.26,18.29-7.45,24.84-14.45h168.25c25.75,0,46.97,21,46.97,46.75v168.25C367.89,846.66,362.69,855.24,360.66,864.95z
			 M406.28,828.14v-156.5c0-42.91-35-77.91-78.14-77.91H171.86V406.28h175.7c4.97,0,9.71-2.26,12.65-6.55
			c32.29-44.94,84.46-71.59,139.57-71.59c55.1,0,107.5,26.65,139.57,71.59c2.94,4.07,7.68,6.55,12.65,6.55h175.7v187.44H671.41
			c-42.91,0-78.14,35-78.14,77.91v156.5l0,0H406.28z M639.34,864.95c-2.26-9.71-7.45-18.29-14.45-24.84V671.86
			c0-25.75,21-46.75,46.97-46.75h168.25c6.55,7.23,15.13,12.2,24.84,14.45C825.43,743,743,825.43,639.34,864.95z"/>
		<path class="st0" d="M234.42,484.42h-31.17c-8.58,0-15.58,7-15.58,15.58s7,15.58,15.58,15.58h31.17c8.58,0,15.58-7,15.58-15.58
			S243,484.42,234.42,484.42z"/>
		<path class="st0" d="M328.14,484.42h-31.17c-8.58,0-15.58,7-15.58,15.58s7,15.58,15.58,15.58h31.17c8.58,0,15.58-7,15.58-15.58
			S336.72,484.42,328.14,484.42z"/>
		<path class="st0" d="M265.58,515.58c-8.58,0-15.58,7-15.58,15.58v31.17c0,8.58,7,15.58,15.58,15.58c8.58,0,15.58-7,15.58-15.58
			v-31.17C281.17,522.58,274.16,515.58,265.58,515.58z"/>
		<path class="st0" d="M265.58,484.42c8.58,0,15.58-7,15.58-15.58v-31.17c0-8.58-7-15.58-15.58-15.58c-8.58,0-15.58,7-15.58,15.58
			v31.17C250,477.42,257,484.42,265.58,484.42z"/>
		<path class="st0" d="M734.42,578.14c12.87,0,23.49-10.61,23.49-23.49s-10.61-23.49-23.49-23.49c-12.87,0-23.49,10.61-23.49,23.49
			S721.54,578.14,734.42,578.14z"/>
		<path class="st0" d="M734.42,468.83c12.87,0,23.49-10.61,23.49-23.49c0-12.87-10.61-23.49-23.49-23.49
			c-12.87,0-23.49,10.61-23.49,23.49C710.93,458.22,721.54,468.83,734.42,468.83z"/>
		<path class="st0" d="M789.07,523.49c12.87,0,23.49-10.61,23.49-23.49c0-12.87-10.61-23.49-23.49-23.49
			c-12.87,0-23.49,10.61-23.49,23.49C765.58,512.87,776.2,523.49,789.07,523.49z"/>
		<path class="st0" d="M679.77,523.49c12.87,0,23.49-10.61,23.49-23.49c0-12.87-10.61-23.49-23.49-23.49
			c-12.87,0-23.49,10.61-23.49,23.49S666.89,523.49,679.77,523.49z"/>
		<path class="st0" d="M468.83,671.86h-31.17c-8.58,0-15.58,7-15.58,15.58s7,15.58,15.58,15.58h31.17c8.58,0,15.58-7,15.58-15.58
			S477.42,671.86,468.83,671.86z"/>
		<path class="st0" d="M562.56,671.86h-31.17c-8.58,0-15.58,7-15.58,15.58s7,15.58,15.58,15.58h31.17c8.58,0,15.58-7,15.58-15.58
			S571.14,671.86,562.56,671.86z"/>
		<path class="st0" d="M500,421.86c-8.58,0-15.58,7-15.58,15.58c0,8.58,7,15.58,15.58,15.58c25.75,0,46.97,21,46.97,46.97
			c0,8.58,7,15.58,15.58,15.58s15.58-7,15.58-15.58C578.14,456.87,543.13,421.86,500,421.86z"/>
	</g>
</g>
</svg>
