<?xml version="1.0" encoding="utf-8"?>
<!-- Generator: Adobe Illustrator 23.0.1, SVG Export Plug-In . SVG Version: 6.00 Build 0)  -->
<svg version="1.1" id="Layer_1" xmlns="http://www.w3.org/2000/svg" xmlns:xlink="http://www.w3.org/1999/xlink" x="0px" y="0px"
	 viewBox="0 0 1000 1000" style="enable-background:new 0 0 1000 1000;" xml:space="preserve">
<style type="text/css">
	.st0{fill:#F1C40F;}
</style>
<g>
	<g>
		<g>
			<g>
				<path class="st0" d="M921.86,187.67h-15.58V140.7c0-8.58-7-15.58-15.58-15.58h-93.72c-8.58,0-15.58,7-15.58,15.58v46.97h-50.36
					l-12.87-50.59c-1.81-7-7.9-11.97-15.13-11.97H296.97c-7.23,0-13.55,4.97-15.13,11.97l-12.42,50.59h-50.36V140.7
					c0-8.58-7-15.58-15.58-15.58H109.3c-8.58,0-15.58,7-15.58,15.58v46.97H78.14c-17.16,0-31.17,14-31.17,31.17v562.56
					c0,17.16,14,31.17,31.17,31.17h31.17c17.16,0,31.17-14,31.17-31.17v-15.58h46.97v15.58c0,17.16,14,31.17,31.17,31.17h93.72
					h62.56h93.72h62.56h93.72h62.56h93.72c17.16,0,31.17-14,31.17-31.17v-15.58h46.97v15.58c0,17.16,14,31.17,31.17,31.17h31.17
					c17.16,0,31.17-14,31.17-31.17V218.83C953.03,201.67,939.02,187.67,921.86,187.67z M812.56,156.28h62.56v31.17h-62.56V156.28z
					 M308.94,156.28h381.89l7.9,31.17H640.7v-15.58h-31.17v15.58h-93.72v-15.58h-31.17v15.58H390.7v-15.58h-31.17v15.58h-58.27
					L308.94,156.28z M124.89,156.28h62.56v31.17h-62.56V156.28z M359.3,781.39h-31.17v-62.56h31.17V781.39z M515.58,781.39h-31.17
					v-62.56h31.17V781.39z M671.86,781.39H640.7v-62.56h31.17V781.39z M921.86,781.39H890.7v-15.58c0-17.16-14-31.17-31.17-31.17
					h-46.97c-17.16,0-31.17,14-31.17,31.17v15.58h-78.14v-78.14c0-8.58-7-15.58-15.58-15.58h-62.56c-8.58,0-15.58,7-15.58,15.58
					v78.14h-62.56v-78.14c0-8.58-7-15.58-15.58-15.58h-62.56c-8.58,0-15.58,7-15.58,15.58v78.14H390.7v-78.14
					c0-8.58-7-15.58-15.58-15.58h-62.56c-8.58,0-15.58,7-15.58,15.58v78.14h-78.14v-15.58c0-17.16-14-31.17-31.17-31.17H140.7
					c-17.16,0-31.17,14-31.17,31.17v15.58H78.14V218.83h31.17h93.72h78.14h437.44h78.14h93.72h31.17v562.56H921.86z"/>
			</g>
		</g>
		<g>
			<g>
				<path class="st0" d="M328.14,422.09H140.7c-8.58,0-15.58,7-15.58,15.58v62.56c0,8.58,7,15.58,15.58,15.58h187.44
					c8.58,0,15.58-7,15.58-15.58v-62.56C343.72,429.09,336.72,422.09,328.14,422.09z M312.56,484.42H156.28v-31.17h156.28V484.42z"
					/>
			</g>
		</g>
		<g>
			<g>
				<path class="st0" d="M859.3,422.09h-46.97v-46.97c0-8.58-7-15.58-15.58-15.58h-62.56c-8.58,0-15.58,7-15.58,15.58v46.97h-46.97
					c-8.58,0-15.58,7-15.58,15.58v62.56c0,8.58,7,15.58,15.58,15.58h46.97v46.97c0,8.58,7,15.58,15.58,15.58h62.56
					c8.58,0,15.58-7,15.58-15.58v-46.97h46.97c8.58,0,15.58-7,15.58-15.58v-62.56C874.89,429.09,867.89,422.09,859.3,422.09z
					 M843.72,484.42h-46.97c-8.58,0-15.58,7-15.58,15.58v46.97H750V500c0-8.58-7-15.58-15.58-15.58h-46.97v-31.17h46.97
					c8.58,0,15.58-7,15.58-15.58V390.7h31.17v46.97c0,8.58,7,15.58,15.58,15.58h46.97V484.42z"/>
			</g>
		</g>
		<g>
			<g>
				<rect x="484.42" y="281.39" class="st0" width="31.17" height="31.17"/>
			</g>
		</g>
		<g>
			<g>
				<rect x="578.14" y="281.39" class="st0" width="31.17" height="31.17"/>
			</g>
		</g>
		<g>
			<g>
				<rect x="656.28" y="281.39" class="st0" width="31.17" height="31.17"/>
			</g>
		</g>
		<g>
			<g>
				<rect x="406.28" y="281.39" class="st0" width="31.17" height="31.17"/>
			</g>
		</g>
		<g>
			<g>
				<rect x="328.14" y="281.39" class="st0" width="31.17" height="31.17"/>
			</g>
		</g>
		<g>
			<g>
				<path class="st0" d="M968.83,812.56v31.17H31.17v-46.97H0v62.56c0,8.58,7,15.58,15.58,15.58h968.83c8.58,0,15.58-7,15.58-15.58
					v-46.97h-31.17V812.56z"/>
			</g>
		</g>
	</g>
</g>
</svg>
