<?xml version="1.0" encoding="utf-8"?>
<!-- Generator: Adobe Illustrator 23.0.1, SVG Export Plug-In . SVG Version: 6.00 Build 0)  -->
<svg version="1.1" id="Layer_1" xmlns="http://www.w3.org/2000/svg" xmlns:xlink="http://www.w3.org/1999/xlink" x="0px" y="0px"
	 viewBox="0 0 1000 1000" style="enable-background:new 0 0 1000 1000;" xml:space="preserve">
<style type="text/css">
	.st0{fill:#F1C40F;}
</style>
<g>
	<g>
		<g>
			<g>
				<path class="st0" d="M158.08,92.04c-36.59,0-66.5,29.68-66.5,66.5s29.68,66.5,66.5,66.5s66.5-29.68,66.5-66.5
					S194.66,92.04,158.08,92.04z M158.08,185.69c-14.96,0-27.38-12.2-27.38-27.38s12.2-27.38,27.38-27.38s27.38,12.2,27.38,27.38
					S173.26,185.69,158.08,185.69z"/>
			</g>
		</g>
		<g>
			<g>
				<path class="st0" d="M178.79,525.54l-0.69-1.38c-4.14-9.89-15.42-14.96-25.31-10.81c-9.89,4.14-14.96,15.42-10.81,25.31
					l0.69,1.38c3.22,7.59,10.35,12.2,18.18,12.2c2.3,0,4.83-0.46,7.13-1.38C177.86,546.94,182.7,535.66,178.79,525.54z"/>
			</g>
		</g>
		<g>
			<g>
				<path class="st0" d="M531.06,176.25L265.99,42.8c-28.3-26.46-66.27-42.34-107.92-42.34C70.87,0.46,0,71.33,0,158.31
					c0,25.31,5.75,48.78,16.34,70.18l0,0L111.6,464.1c3.22,7.59,10.35,12.2,18.18,12.2c2.3,0,4.83-0.46,7.13-1.38
					c9.89-4.14,14.96-15.42,10.81-25.31L87.21,300.05c21.4,10.81,45.56,16.8,70.87,16.8c87.21,0,158.31-70.87,158.31-158.31
					c0-17.72-2.99-34.74-8.51-50.85l205.71,103.54c2.76,1.38,5.75,2.07,8.74,2.07c7.13,0,14.04-3.91,17.49-10.81
					C544.41,192.82,540.73,181.09,531.06,176.25z M158.08,277.5c-65.58,0-119.19-53.61-119.19-119.19S92.5,39.12,158.08,39.12
					s119.19,53.61,119.19,119.19S223.88,277.5,158.08,277.5z"/>
			</g>
		</g>
		<g>
			<g>
				<path class="st0" d="M954.21,389.09c-0.46-0.23-0.69-0.46-0.92-0.69L690.98,256.56c-9.66-4.83-21.4-0.92-26.23,8.51
					c-4.83,9.66-0.92,21.4,8.51,26.23l197.65,99.4c-25.54,14.96-42.8,42.57-42.8,74.32c0,45.79,35.9,83.3,80.76,85.83L752.88,763.46
					c0.46-5.75,0.69-11.5,0.69-17.49c0-140.13-113.9-254.03-254.03-254.03c-124.71,0-228.72,90.43-249.88,208.93l-42.11-104.23
					c-4.14-9.89-15.42-14.96-25.31-10.81s-14.96,15.42-10.81,25.31l93.88,231.94c0.23,0.23,0.23,0.69,0.46,0.69
					C304.19,935.11,394.62,999.54,500,999.54c79.84,0,151.17-37.05,197.65-95.03l0,0l1.15-1.84c4.14-5.06,7.82-10.35,11.5-15.65
					l270.13-367.69c1.84-2.3,3.91-4.83,5.52-7.59c0.46-0.69,0.69-1.15,1.15-1.84c8.28-13.12,12.89-28.53,12.89-45.1
					C1000,432.35,981.36,403.59,954.21,389.09z M678.56,865.39l-10.81,14.96c-39.35,49.24-100.09,80.76-167.74,80.76
					c-118.27,0-214.91-96.18-214.91-214.91S381.27,531.29,500,531.29s214.91,96.18,214.91,214.91
					C714.68,790.38,701.33,831.34,678.56,865.39z M953.98,489.65l-4.37,5.75c-8.51,9.89-21.4,16.34-35.43,16.34
					c-25.77,0-46.94-21.17-46.94-46.94c0-25.77,21.17-46.94,46.94-46.94c25.77,0,46.94,21.17,46.94,46.94
					C960.88,474,958.35,482.51,953.98,489.65z"/>
			</g>
		</g>
		<g>
			<g>
				<path class="st0" d="M609.07,215.6L609.07,215.6c-9.66-5.06-21.4-1.15-26.46,8.51c-4.83,9.66-0.92,21.4,8.74,26.23l0.23,0.23
					c2.76,1.38,5.75,2.07,8.74,2.07c7.13,0,14.04-3.91,17.49-10.81C622.87,232.17,618.96,220.43,609.07,215.6z"/>
			</g>
		</g>
		<g>
			<g>
				<path class="st0" d="M499.77,684.31c-34.28,0-61.9,27.84-61.9,61.9c0,34.28,27.84,61.9,61.9,61.9s61.9-27.84,61.9-61.9
					S534.05,684.31,499.77,684.31z M499.77,768.98c-12.43,0-22.78-10.12-22.78-22.78s10.12-22.78,22.78-22.78
					c12.66,0,22.78,10.12,22.78,22.78S512.43,768.98,499.77,768.98z"/>
			</g>
		</g>
		<g>
			<g>
				<path class="st0" d="M656.93,704.79l-17.95-4.6l-7.82-18.64l9.66-16.11c4.6-7.59,3.45-17.49-2.99-23.93l-32.67-32.9
					c-6.21-6.44-16.11-7.59-23.93-2.99l-16.11,9.66l-18.64-7.82l-4.6-18.41c-2.07-8.74-9.89-14.96-18.87-14.96h-46.02
					c-8.97,0-16.8,5.98-18.87,14.96l-4.6,18.41l-18.64,7.82l-16.11-9.66c-7.59-4.6-17.49-3.22-23.93,2.99l-32.67,32.9
					c-6.21,6.21-7.36,16.11-2.99,23.93l9.66,16.11l-8.05,18.64l-17.95,4.6c-8.74,2.07-14.96,9.89-14.96,18.87l0.23,46.48
					c0,8.97,5.98,16.8,14.96,18.87l17.72,4.6l7.82,18.64l-9.2,15.42c-4.6,7.59-3.22,17.49,2.99,23.93l32.9,32.9
					c6.21,6.21,16.11,7.36,23.93,2.99l15.19-9.2l18.64,7.82l4.37,17.26c2.07,8.74,9.89,14.96,18.87,14.96h46.71
					c8.97,0,16.8-5.98,18.87-14.96l4.37-17.26l18.64-7.82l15.19,9.2c7.59,4.6,17.49,3.45,23.93-2.99l32.9-32.9
					c6.44-6.21,7.59-16.11,2.99-23.93l-9.2-15.42l7.82-18.64l17.72-4.6c8.51-2.07,14.96-9.89,14.96-18.87l0.23-46.48
					C671.65,714.68,665.67,706.86,656.93,704.79z M632.54,754.95l-12.43,3.22c-5.98,1.61-11.04,5.75-13.35,11.5l-15.42,36.82
					c-2.3,5.75-1.84,12.2,1.38,17.49l6.44,10.81l-11.5,11.27l-10.81-6.44c-5.29-3.22-11.73-3.68-17.49-1.38l-36.82,15.42
					c-5.75,2.3-9.89,7.13-11.5,13.35l-2.99,11.97h-16.11L488.96,867c-1.61-5.98-5.75-11.04-11.5-13.35l-36.82-15.42
					c-5.75-2.3-12.2-1.84-17.49,1.38l-10.81,6.44l-11.5-11.27l6.44-10.81c3.22-5.29,3.68-11.73,1.38-17.49l-15.42-36.82
					c-2.3-5.75-7.13-9.89-13.35-11.5l-12.43-3.22v-16.11l12.43-3.22c5.98-1.61,11.04-5.75,13.35-11.5l15.42-36.82
					c2.3-5.75,1.84-12.2-1.38-17.49l-6.9-11.27l11.04-11.04l11.5,6.9c5.29,3.22,11.73,3.68,17.49,1.38l36.82-15.42
					c5.75-2.3,9.89-7.13,11.5-13.35l3.22-13.12h15.65l3.22,13.12c1.61,5.98,5.75,11.04,11.5,13.35l36.82,15.42
					c5.75,2.3,12.2,1.84,17.49-1.38l11.5-6.9l11.04,11.04l-6.9,11.27c-3.22,5.29-3.68,11.73-1.38,17.49l15.42,36.82
					c2.3,5.75,7.13,9.89,13.35,11.5l12.43,3.22L632.54,754.95z"/>
			</g>
		</g>
	</g>
</g>
</svg>
