<?xml version="1.0" encoding="utf-8"?>
<!-- Generator: Adobe Illustrator 23.0.1, SVG Export Plug-In . SVG Version: 6.00 Build 0)  -->
<svg version="1.1" id="Layer_1" xmlns="http://www.w3.org/2000/svg" xmlns:xlink="http://www.w3.org/1999/xlink" x="0px" y="0px"
	 viewBox="0 0 1000 1000" style="enable-background:new 0 0 1000 1000;" xml:space="preserve">
<style type="text/css">
	.st0{fill:#F1C40F;}
</style>
<g>
	<g>
		<g>
			<g>
				<path class="st0" d="M709.31,241.86L709.31,241.86c0-26.86-21.63-48.49-48.49-48.49h-224.9l273.16,210.33V241.86H709.31z
					 M677.21,338.38L531.3,225.93h129.98c8.88,0,16.16,7.06,16.16,16.16L677.21,338.38L677.21,338.38z"/>
				<path class="st0" d="M580.47,612.91H225.81c-44.39,0-80.58,36.19-80.58,80.58h32.1c0-26.86,21.63-48.49,48.49-48.49H580.7
					c26.86,0,48.49,21.63,48.49,48.49h32.1C661.05,648.87,625.09,612.91,580.47,612.91z"/>
				<path class="st0" d="M580.47,516.16H225.81c-26.86,0-48.49-21.63-48.49-48.49h-32.1c0,44.39,36.19,80.58,80.58,80.58H580.7
					c44.39,0,80.58-36.19,80.58-80.58h-32.1C628.73,494.54,607.1,516.16,580.47,516.16z"/>
				<path class="st0" d="M932.16,619.51c-34.15-56.45-69.66-119.51-77.62-184.16h-32.1c-2.73,16.16-8.42,43.71-16.16,64.65V193.38
					c0-44.39-36.19-80.58-80.58-80.58H354.88V0.11H64.42v114.5C27.77,122.13,0,154.68,0,193.6v725.7
					c0,44.39,36.19,80.58,80.58,80.58H725.7c34.6,0,63.97-22.08,75.57-52.81c12.29,2.73,24.36,4.33,37.56,4.33
					c89.01,0,161.17-71.7,161.17-160.94C999.54,730.37,966.77,676.64,932.16,619.51z M290.23,32.21h32.1v80.58h-32.1V32.21z
					 M225.81,32.21h32.1v80.58h-32.1V32.21z M161.17,112.79V32.21h32.1v80.58H161.17L161.17,112.79z M96.97,32.21h32.1v80.58h-32.1
					V32.21z M725.7,967.56H80.58c-26.86,0-48.49-21.63-48.49-48.49v-725.7c0-26.86,21.63-48.49,48.49-48.49h274.3H725.7
					c26.86,0,48.49,21.63,48.49,48.49v375.6c-9.56,16.85-19.35,33.23-29.14,49.4c-34.83,57.14-67.61,111.31-67.61,171.64
					c0,64.65,38.24,120.65,93.56,145.91C763.94,954.59,746.19,967.56,725.7,967.56z M838.38,919.08
					c-71.02,0-129.07-57.82-129.07-129.07c0-51.22,30.5-101.53,63.05-154.79c23.67-38.93,49.4-81.27,66.01-129.07
					c16.62,47.8,42.34,90.14,66.01,129.07c32.55,53.27,63.05,103.57,63.05,154.79C967.45,861.26,909.4,919.08,838.38,919.08z"/>
				<path class="st0" d="M903.03,790.01L903.03,790.01c0,35.51-28.68,64.42-64.42,64.42v32.1c53.49,0,96.74-43.25,96.74-96.74H902.8
					v0.23H903.03z"/>
				<rect x="80.58" y="193.38" class="st0" width="32.1" height="32.1"/>
				<rect x="145.23" y="193.38" class="st0" width="32.1" height="32.1"/>
				<rect x="209.65" y="193.38" class="st0" width="32.1" height="32.1"/>
				<rect x="80.58" y="886.98" class="st0" width="32.1" height="32.1"/>
				<rect x="145.23" y="886.98" class="st0" width="32.1" height="32.1"/>
			</g>
		</g>
	</g>
</g>
</svg>
